<svg width="153" height="43" viewBox="0 0 153 43" fill="none" xmlns="http://www.w3.org/2000/svg">
<g id="Dior Logo" clip-path="url(#clip0_328_95)">
<path id="Vector" d="M0.464105 0.839479H20.3278C37.4069 0.839479 44.09 10.9132 44.09 21.5777C44.09 32.4288 35.5195 42.0983 19.214 42.0983H0.495045C0.154702 42.0983 0.0309403 41.8807 0.0309403 41.6941C0.0309403 41.4765 0.247523 41.29 0.556926 41.29H4.05318C5.1361 41.29 5.84772 40.637 5.84772 39.4244V3.57556C5.84772 2.6739 5.41456 1.67896 3.9913 1.67896H0.433165C0.154702 1.67896 0 1.49241 0 1.27477C0 1.08821 0.0618807 0.839479 0.464105 0.839479ZM12.8712 40.1706C12.8712 41.0723 13.2734 41.3521 13.8613 41.3521H19.1211C32.0851 41.3521 36.7881 31.3717 36.7881 21.3601C36.7881 11.3485 31.8067 1.64787 20.8538 1.64787H13.7066C12.964 1.64787 12.9021 2.2697 12.9021 2.54953L12.8712 40.1706ZM46.0702 0.839479C45.7608 0.839479 45.4823 0.963847 45.4823 1.21258C45.4823 1.46132 45.637 1.61678 45.9155 1.61678H49.4117C50.2162 1.61678 50.9897 2.17643 50.9897 3.73102V39.4555C50.9897 40.2017 50.4328 41.321 49.4427 41.321H45.9773C45.5751 41.321 45.5442 41.632 45.5442 41.7563C45.5442 41.8807 45.5132 42.0983 45.9773 42.0983H62.8089C63.0564 42.0983 63.3968 42.0672 63.3968 41.8185C63.3968 41.5698 63.3349 41.321 62.9017 41.321H59.653C59.1889 41.321 57.9203 41.0412 57.9203 39.611V3.35792C57.9203 2.33189 58.5701 1.64787 59.7458 1.64787H62.9327C63.2111 1.64787 63.3658 1.49241 63.3658 1.27477C63.3658 1.05712 63.2111 0.870571 62.8398 0.870571H46.0702V0.839479ZM72.3695 21.4845C72.3695 10.0738 77.4437 0.839479 86.9733 0.839479C96.3173 0.839479 101.577 10.0738 101.577 21.4845C101.577 32.8952 96.7814 42.1294 86.9733 42.1294C77.4746 42.1605 72.3695 32.8952 72.3695 21.4845ZM86.9733 43C100.525 43 109.065 33.3615 109.065 21.5155C109.065 9.66956 100.618 0 86.9733 0C73.3596 0 64.8819 9.63847 64.8819 21.4845C64.8819 33.3304 73.6999 43 86.9733 43ZM152.381 41.8496C147.059 42.4093 144.12 33.6414 141.428 29.4751C139.417 26.397 135.147 23.2567 130.94 22.6349C137.87 22.2307 145.636 19.992 145.636 12.0947C145.636 5.68981 141.707 0.839479 127.289 0.839479H110.674C110.457 0.839479 110.24 0.963847 110.24 1.21258C110.24 1.46132 110.457 1.61678 110.674 1.61678H114.479C115.284 1.61678 116.057 2.17643 116.057 3.73102V39.4555C116.057 40.2017 115.5 41.321 114.51 41.321H110.766C110.457 41.321 110.333 41.5698 110.333 41.6941C110.333 41.8185 110.457 42.0983 110.766 42.0983H128.402C128.65 42.0983 128.867 41.974 128.867 41.7252C128.867 41.4765 128.712 41.321 128.371 41.321H124.813C124.349 41.321 123.081 41.0101 123.081 39.611V22.7281H124.906C133.631 22.7281 134.281 32.2422 138.613 37.6833C142.326 42.3471 147.183 42.9378 149.937 42.9378C151.113 42.9378 151.917 42.9067 152.66 42.7202C153.124 42.5647 153.217 41.7563 152.381 41.8496ZM124.844 1.61678H127.412C131.806 1.61678 138.922 3.35792 138.922 11.6905C138.922 19.3391 132.61 21.9197 126.763 21.9197H123.019V3.35792C123.019 2.3008 123.669 1.61678 124.844 1.61678Z" fill="black"/>
</g>
<defs>
<clipPath id="clip0_328_95">
<rect width="153" height="43" fill="white"/>
</clipPath>
</defs>
</svg>
