<svg width="26" height="26" viewBox="0 0 26 26" fill="none" xmlns="http://www.w3.org/2000/svg">
<g id="sort-alt-svgrepo-com 1" opacity="0.6">
<path id="Vector" d="M5.93363 8.62575C5.61189 8.93855 5.60464 9.45295 5.91744 9.77469C6.23024 10.0964 6.74464 10.1037 7.06638 9.79088L5.93363 8.62575ZM10.4 5.41665H11.2125C11.2125 5.0901 11.017 4.79529 10.7162 4.6682C10.4154 4.54112 10.0678 4.60646 9.83363 4.83408L10.4 5.41665ZM9.5875 20.5833C9.5875 21.032 9.95128 21.3958 10.4 21.3958C10.8487 21.3958 11.2125 21.032 11.2125 20.5833H9.5875ZM20.0664 17.3742C20.3881 17.0614 20.3954 16.547 20.0825 16.2253C19.7698 15.9035 19.2554 15.8963 18.9336 16.2091L20.0664 17.3742ZM15.6 20.5833H14.7875C14.7875 20.9098 14.983 21.2047 15.2838 21.3318C15.5846 21.4589 15.9323 21.3935 16.1664 21.1658L15.6 20.5833ZM16.4125 5.41665C16.4125 4.96792 16.0487 4.60415 15.6 4.60415C15.1513 4.60415 14.7875 4.96792 14.7875 5.41665H16.4125ZM7.06638 9.79088L10.9664 5.99921L9.83363 4.83408L5.93363 8.62575L7.06638 9.79088ZM9.5875 5.41665V20.5833H11.2125V5.41665H9.5875ZM18.9336 16.2091L15.0336 20.0008L16.1664 21.1658L20.0664 17.3742L18.9336 16.2091ZM16.4125 20.5833V5.41665H14.7875V20.5833H16.4125Z" fill="black"/>
</g>
</svg>
